<?xml version="1.0" encoding="UTF-8"?>
<svg id="TerrainIcons" xmlns="http://www.w3.org/2000/svg" viewBox="0 0 48 48">
  <path d="M21.33,36.71c-3.59.33-6.89.64-10.71,1,2.99-3.89,5.73-7.46,8.73-11.36-2.31.35-4.22.65-6.57,1.01,2.9-4.41,5.56-8.47,8.43-12.83-1.18.27-2.01.45-3.31.74,2.74-3.7,5.25-7.09,7.95-10.73,2.28,3.63,4.44,7.07,6.79,10.8-1.27-.3-2.22-.52-3.53-.83,2.84,4.32,5.5,8.37,8.4,12.78-1.7-.34-3.04-.61-4.75-.96,1.93,3.86,3.73,7.45,5.69,11.38-3.24-.35-6.12-.65-9.27-.99v6.75h-7.82v-6.76Z" style="fill: #4c4839; stroke-width: 0px;"/>
  <path d="M0,38.14c2.08-2.88,3.92-5.44,5.98-8.3-1.64.23-2.89.41-4.42.62,1.92-3.11,3.7-6,5.65-9.15-.79.09-1.32.14-2.19.24,2.26-3.25,4.37-6.28,6.76-9.72.6,2.5,3.89,3.8,1.31,6.81.91-.14,1.55-.23,2.74-.41-.33.91-.46,1.63-.83,2.19-1.66,2.58-3.38,5.12-5.07,7.68-.36.54-.69,1.1-1.19,1.9,2.08-.31,3.8-.57,6.08-.92-2.31,2.99-4.29,5.55-6.3,8.09-.15.19-.58.21-.88.24-2.37.23-4.74.44-7.65.71Z" style="fill: #4c4839; stroke-width: 0px;"/>
  <path d="M38.37,11.82c1.98,3.35,3.77,6.38,5.71,9.66-.8-.07-1.36-.12-2.18-.19,1.87,3.04,3.66,5.95,5.62,9.14-1.16-.19-2.04-.33-3.35-.55,1.33,2.85,2.54,5.43,3.83,8.21-2.54-.22-4.88-.42-7.53-.65-1.2-2.36-2.6-5.14-4.19-8.28,1.91.35,3.46.63,5.36.98-2.67-4.08-5.15-7.88-7.88-12.05,1.26.2,2.08.34,3.21.52-2.81-3.05.55-4.36,1.4-6.78Z" style="fill: #4c4839; stroke-width: 0px;"/>
  <path d="M7.96,42.25v-2.27c2.05-.2,4.08-.41,6.26-.62v2.89h-6.26Z" style="fill: #4c4839; stroke-width: 0px;"/>
  <path d="M34.86,42.26v-2.89c2.04.2,4.01.4,6.11.61.05.79.1,1.45.15,2.28h-6.26Z" style="fill: #4c4839; stroke-width: 0px;"/>
</svg>