<?xml version="1.0" encoding="UTF-8"?>
<svg id="TerrainIcons" xmlns="http://www.w3.org/2000/svg" viewBox="0 0 48 48">
  <polygon points="23.64 11.43 7.95 19.16 13.74 33.14 35.37 32.02 38.55 18.16 23.64 11.43" style="fill: #4c4839; stroke-width: 0px;"/>
  <polygon points="30.95 35.38 31.95 38.75 44.27 38.19 44.58 27.46 41.04 27.8 40.47 34.06 30.95 35.38" style="fill: #4c4839; stroke-width: 0px;"/>
  <polygon points="4.4 31.72 7.39 31.72 8.69 37.62 19.93 37.24 20.21 41.35 6.01 41.73 4.4 31.72" style="fill: #4c4839; stroke-width: 0px;"/>
  <polygon points="1.59 25.64 5.05 25.55 3.46 17.41 9.73 14.6 9.73 12.17 0 16.57 1.59 25.64" style="fill: #4c4839; stroke-width: 0px;"/>
  <polygon points="37.61 13.85 37.71 11.61 47.91 15.35 48 21.81 42.95 21.34 42.85 16 37.61 13.85" style="fill: #4c4839; stroke-width: 0px;"/>
  <polygon points="14.88 10.3 15.16 11.98 22.92 8.61 28.82 11.23 31.06 9.45 23.11 6.27 14.88 10.3" style="fill: #4c4839; stroke-width: 0px;"/>
</svg>