<?xml version="1.0" encoding="utf-8"?>
<svg xmlns="http://www.w3.org/2000/svg">
    <defs>

        <svg id="terrain-fortification" viewBox="0 0 48 48">
            <polygon points="23.64 11.43 7.95 19.16 13.74 33.14 35.37 32.02 38.55 18.16 23.64 11.43" />
            <polygon
                points="30.95 35.38 31.95 38.75 44.27 38.19 44.58 27.46 41.04 27.8 40.47 34.06 30.95 35.38" />
            <polygon
                points="4.4 31.72 7.39 31.72 8.69 37.62 19.93 37.24 20.21 41.35 6.01 41.73 4.4 31.72" />
            <polygon
                points="1.59 25.64 5.05 25.55 3.46 17.41 9.73 14.6 9.73 12.17 0 16.57 1.59 25.64" />
            <polygon
                points="37.61 13.85 37.71 11.61 47.91 15.35 48 21.81 42.95 21.34 42.85 16 37.61 13.85"/>
            <polygon
                points="14.88 10.3 15.16 11.98 22.92 8.61 28.82 11.23 31.06 9.45 23.11 6.27 14.88 10.3" />
        </svg>

        <svg id="terrain-hills" viewBox="0 0 48 48">
            <path d="M48,31.22H10.1c4.65-6.48,9.74-11.92,18-12.41,9.24-.55,15.27,4.52,19.9,12.41Z" />
            <path
                d="M22.65,18.74c-1.01.29-1.87.52-2.71.79-3.78,1.23-6.66,3.7-9.3,6.58-.6.66-1.69,1.16-2.58,1.21-2.64.16-5.29.06-8.06.06,6.31-9.72,14.8-13.15,22.65-8.64Z" />
        </svg>

        <svg id="terrain-mountains" viewBox="0 0 48 48">
            <path
                d="M0,41.99C6.94,29.93,13.72,18.16,20.71,6.01c2.22,3.67,4.29,7.08,6.52,10.78,1.14-1.43,2.15-2.7,3.35-4.2,5.82,9.82,11.54,19.48,17.42,29.4H0Z" />
        </svg>

        <svg id="terrain-plains" viewBox="0 0 48 48">
            <path
                d="M23.47,20.23c6.11,1.48,12.03,2.92,18.2,4.42-2.44,4.31-4.77,8.43-7.23,12.76-6.92-2.82-13.78-5.62-21.02-8.56,3.45-2.96,6.71-5.76,10.04-8.61Z" />
            <path
                d="M42.05,23.13c-6.69-1.48-13.29-2.94-19.89-4.4-3.92,3.09-7.76,6.13-11.66,9.2-3.43-1.41-6.81-2.8-10.51-4.32,5.34-3.17,10.41-6.18,15.59-9.27,9.36,1.7,18.77,3.41,28.44,5.17-.71,1.3-1.31,2.39-1.98,3.61Z" />
            <path
                d="M18.14,12.81c.66-.12,1.34-.42,1.97-.33,8.69,1.29,17.37,2.63,26.24,3.99-.23.52-.4.89-.66,1.45-9.21-1.55-18.38-3.09-27.54-4.62,0-.16-.01-.33-.02-.49Z" />
            <path
                d="M21.25,10.84c.51-.08,1.04-.3,1.54-.24,8.18,1.03,16.35,2.09,24.52,3.15.19.02.36.15.69.3-.17.35-.33.66-.53,1.06-8.77-1.25-17.48-2.49-26.19-3.73,0-.18-.02-.36-.03-.54Z" />
        </svg>

        <svg id="terrain-urban" viewBox="0 0 48 48">
            <path
                d="M19.88,21.61c-.56-2.35-1.6-4.24-2.21-6.3-.15-.51-.38-1.01-.38-1.57,0-2.47,0-4.94,0-7.5h16.81v35.51h-16.75v-17.14h2.34c.05.4.09.79.14,1.28h3.36v-4.28h-3.31ZM23.2,28.67c-1.33-.97-2.1-.96-3.39,0v4.18h3.39v-4.18ZM26.26,32.24c.95,1.19,2.2.49,3.31.72v-4.93h-2.68c-.24.24-.41.41-.63.63,0,1.16,0,2.36,0,3.57ZM23.16,12.59c.03-.7.07-1.41.07-2.12,0-.79-.05-1.57-.08-2.26h-3.4c.03,1.52-.03,2.96.04,4.38h3.36ZM26.3,8.17v4.45c1.19-.1,2.31.11,3.3-.13v-4.32h-3.3ZM19.81,19.46h3.31v-4.3h-3.31v4.3ZM26.21,19.45c1.16.13,2.32.15,3.38,0v-4.49c-1.18.35-2.32-.18-3.38.3v4.19ZM29.6,25.94v-4.38h-2.78c-1.18,1.35-.34,2.91-.67,4.38h3.45Z" />
            <path
                d="M2.48,23.63c-.74-1.51-1.74-.89-2.48-1.24.95-2.07,1.15-4.42,2.48-6.27h12.89c.68,2,1.37,4.03,2.13,6.25-.57.06-.96.04-1.3.16-.29.1-.52.36-.83.59v18.62H2.48v-18.11ZM8.93,22.56v5.79h3.48c-.39-1.98.46-3.98-.59-5.79h-2.89ZM6.39,28.46c.92-1.77.25-3.56.49-5.17-1.04-1.31-2.28-.56-3.36-.8v5.97h2.87Z" />
            <path
                d="M48,15.98v25.78h-11.81v-25.53c.23-.08.52-.18.89-.31v-5.2h2v4.58l.69.69h8.23ZM42.5,24.95v-5.43c-1.35.05-2.63-.06-3.8.06v5.36h3.8ZM42.54,27.56h-3.93c0,.98,0,1.87,0,2.77.01.87.05,1.74.07,2.52h3.86v-5.28Z" />
        </svg>

        <svg id="terrain-water" viewBox="0 0 48 48">
            <path
                d="M10.09,21.77c-5.09,1.6-7.64.99-10.09-2.49,2.27.43,4.5.8,6.58-.2,1.94-.93,3.77-2.09,5.68-3.18.04.08.17.24.23.42.79,2.23,2.27,3.76,4.67,3.97,2.31.21,3.68-1.42,4.88-3.1.56-.78,1.02-1.63,1.57-2.54.89,1.09,1.63,2.22,2.59,3.09,1.02.92,2.17,1.81,3.42,2.35,2.34,1.01,4.43.1,5.63-2.18.32-.61.55-1.28.89-2.09.97.87,1.94,1.71,2.87,2.58,2.52,2.33,5.28,3.03,8.42,1.3.12-.07.26-.1.39-.12.05,0,.12.07.18.1-2.25,4.64-5.88,5.38-10.71,2.09-1.97,1.57-3.91,3.29-6.72,3.28-2.8,0-4.87-1.48-6.89-3.28-2.02,1.72-4.01,3.34-6.82,3.29-2.8-.06-4.85-1.56-6.76-3.3Z"
                />
            <path
                d="M11.09,28.9c-3.71,1.68-6.41.68-8.47-3.08,4.37,2.33,5.74,2.03,7.51-1.69.89.8,1.72,1.64,2.65,2.36,3.94,3.1,7.06,2.66,9.98-1.34.24-.34.48-.68.82-1.16,1.92,2.1,3.77,4.21,6.8,4.46,3.29.27,5.03-1.93,6.55-4.04,1.34.99,2.52,2.42,3.95,2.75,1.37.31,2.99-.53,4.32-.82-1.78,3.37-3.57,3.98-7.83,2.5-4.47,4.95-6.46,5.92-13.71,2.37-7.05,3.26-9.02,2.92-12.57-2.31Z" />
        </svg>

        <svg id="terrain-forest" viewBox="0 0 48 48">
            <path
                d="M21.33,36.71c-3.59.33-6.89.64-10.71,1,2.99-3.89,5.73-7.46,8.73-11.36-2.31.35-4.22.65-6.57,1.01,2.9-4.41,5.56-8.47,8.43-12.83-1.18.27-2.01.45-3.31.74,2.74-3.7,5.25-7.09,7.95-10.73,2.28,3.63,4.44,7.07,6.79,10.8-1.27-.3-2.22-.52-3.53-.83,2.84,4.32,5.5,8.37,8.4,12.78-1.7-.34-3.04-.61-4.75-.96,1.93,3.86,3.73,7.45,5.69,11.38-3.24-.35-6.12-.65-9.27-.99v6.75h-7.82v-6.76Z" />
            <path
                d="M0,38.14c2.08-2.88,3.92-5.44,5.98-8.3-1.64.23-2.89.41-4.42.62,1.92-3.11,3.7-6,5.65-9.15-.79.09-1.32.14-2.19.24,2.26-3.25,4.37-6.28,6.76-9.72.6,2.5,3.89,3.8,1.31,6.81.91-.14,1.55-.23,2.74-.41-.33.91-.46,1.63-.83,2.19-1.66,2.58-3.38,5.12-5.07,7.68-.36.54-.69,1.1-1.19,1.9,2.08-.31,3.8-.57,6.08-.92-2.31,2.99-4.29,5.55-6.3,8.09-.15.19-.58.21-.88.24-2.37.23-4.74.44-7.65.71Z" />
            <path
                d="M38.37,11.82c1.98,3.35,3.77,6.38,5.71,9.66-.8-.07-1.36-.12-2.18-.19,1.87,3.04,3.66,5.95,5.62,9.14-1.16-.19-2.04-.33-3.35-.55,1.33,2.85,2.54,5.43,3.83,8.21-2.54-.22-4.88-.42-7.53-.65-1.2-2.36-2.6-5.14-4.19-8.28,1.91.35,3.46.63,5.36.98-2.67-4.08-5.15-7.88-7.88-12.05,1.26.2,2.08.34,3.21.52-2.81-3.05.55-4.36,1.4-6.78Z" />
            <path d="M7.96,42.25v-2.27c2.05-.2,4.08-.41,6.26-.62v2.89h-6.26Z" />
            <path d="M34.86,42.26v-2.89c2.04.2,4.01.4,6.11.61.05.79.1,1.45.15,2.28h-6.26Z" />
        </svg>


    </defs>
</svg>