<?xml version="1.0" encoding="UTF-8"?>
<svg id="TerrainIcons" xmlns="http://www.w3.org/2000/svg" viewBox="0 0 48 48">
  <path d="M23.47,20.23c6.11,1.48,12.03,2.92,18.2,4.42-2.44,4.31-4.77,8.43-7.23,12.76-6.92-2.82-13.78-5.62-21.02-8.56,3.45-2.96,6.71-5.76,10.04-8.61Z" style="fill: #4c4839; stroke-width: 0px;"/>
  <path d="M42.05,23.13c-6.69-1.48-13.29-2.94-19.89-4.4-3.92,3.09-7.76,6.13-11.66,9.2-3.43-1.41-6.81-2.8-10.51-4.32,5.34-3.17,10.41-6.18,15.59-9.27,9.36,1.7,18.77,3.41,28.44,5.17-.71,1.3-1.31,2.39-1.98,3.61Z" style="fill: #4c4839; stroke-width: 0px;"/>
  <path d="M18.14,12.81c.66-.12,1.34-.42,1.97-.33,8.69,1.29,17.37,2.63,26.24,3.99-.23.52-.4.89-.66,1.45-9.21-1.55-18.38-3.09-27.54-4.62,0-.16-.01-.33-.02-.49Z" style="fill: #4c4839; stroke-width: 0px;"/>
  <path d="M21.25,10.84c.51-.08,1.04-.3,1.54-.24,8.18,1.03,16.35,2.09,24.52,3.15.19.02.36.15.69.3-.17.35-.33.66-.53,1.06-8.77-1.25-17.48-2.49-26.19-3.73,0-.18-.02-.36-.03-.54Z" style="fill: #4c4839; stroke-width: 0px;"/>
</svg>