<?xml version="1.0" encoding="UTF-8"?>
<svg id="TerrainIcons" xmlns="http://www.w3.org/2000/svg" viewBox="0 0 48 48">
  <path d="M19.88,21.61c-.56-2.35-1.6-4.24-2.21-6.3-.15-.51-.38-1.01-.38-1.57,0-2.47,0-4.94,0-7.5h16.81v35.51h-16.75v-17.14h2.34c.05.4.09.79.14,1.28h3.36v-4.28h-3.31ZM23.2,28.67c-1.33-.97-2.1-.96-3.39,0v4.18h3.39v-4.18ZM26.26,32.24c.95,1.19,2.2.49,3.31.72v-4.93h-2.68c-.24.24-.41.41-.63.63,0,1.16,0,2.36,0,3.57ZM23.16,12.59c.03-.7.07-1.41.07-2.12,0-.79-.05-1.57-.08-2.26h-3.4c.03,1.52-.03,2.96.04,4.38h3.36ZM26.3,8.17v4.45c1.19-.1,2.31.11,3.3-.13v-4.32h-3.3ZM19.81,19.46h3.31v-4.3h-3.31v4.3ZM26.21,19.45c1.16.13,2.32.15,3.38,0v-4.49c-1.18.35-2.32-.18-3.38.3v4.19ZM29.6,25.94v-4.38h-2.78c-1.18,1.35-.34,2.91-.67,4.38h3.45Z" style="fill: #4c4839; stroke-width: 0px;"/>
  <path d="M2.48,23.63c-.74-1.51-1.74-.89-2.48-1.24.95-2.07,1.15-4.42,2.48-6.27h12.89c.68,2,1.37,4.03,2.13,6.25-.57.06-.96.04-1.3.16-.29.1-.52.36-.83.59v18.62H2.48v-18.11ZM8.93,22.56v5.79h3.48c-.39-1.98.46-3.98-.59-5.79h-2.89ZM6.39,28.46c.92-1.77.25-3.56.49-5.17-1.04-1.31-2.28-.56-3.36-.8v5.97h2.87Z" style="fill: #4c4839; stroke-width: 0px;"/>
  <path d="M48,15.98v25.78h-11.81v-25.53c.23-.08.52-.18.89-.31v-5.2h2v4.58l.69.69h8.23ZM42.5,24.95v-5.43c-1.35.05-2.63-.06-3.8.06v5.36h3.8ZM42.54,27.56h-3.93c0,.98,0,1.87,0,2.77.01.87.05,1.74.07,2.52h3.86v-5.28Z" style="fill: #4c4839; stroke-width: 0px;"/>
</svg>