<?xml version="1.0" encoding="UTF-8"?>
<svg id="TerrainIcons" xmlns="http://www.w3.org/2000/svg" viewBox="0 0 48 48">
  <path d="M10.09,21.77c-5.09,1.6-7.64.99-10.09-2.49,2.27.43,4.5.8,6.58-.2,1.94-.93,3.77-2.09,5.68-3.18.04.08.17.24.23.42.79,2.23,2.27,3.76,4.67,3.97,2.31.21,3.68-1.42,4.88-3.1.56-.78,1.02-1.63,1.57-2.54.89,1.09,1.63,2.22,2.59,3.09,1.02.92,2.17,1.81,3.42,2.35,2.34,1.01,4.43.1,5.63-2.18.32-.61.55-1.28.89-2.09.97.87,1.94,1.71,2.87,2.58,2.52,2.33,5.28,3.03,8.42,1.3.12-.07.26-.1.39-.12.05,0,.12.07.18.1-2.25,4.64-5.88,5.38-10.71,2.09-1.97,1.57-3.91,3.29-6.72,3.28-2.8,0-4.87-1.48-6.89-3.28-2.02,1.72-4.01,3.34-6.82,3.29-2.8-.06-4.85-1.56-6.76-3.3Z" style="fill: #4c4839; stroke-width: 0px;"/>
  <path d="M11.09,28.9c-3.71,1.68-6.41.68-8.47-3.08,4.37,2.33,5.74,2.03,7.51-1.69.89.8,1.72,1.64,2.65,2.36,3.94,3.1,7.06,2.66,9.98-1.34.24-.34.48-.68.82-1.16,1.92,2.1,3.77,4.21,6.8,4.46,3.29.27,5.03-1.93,6.55-4.04,1.34.99,2.52,2.42,3.95,2.75,1.37.31,2.99-.53,4.32-.82-1.78,3.37-3.57,3.98-7.83,2.5-4.47,4.95-6.46,5.92-13.71,2.37-7.05,3.26-9.02,2.92-12.57-2.31Z" style="fill: #4c4839; stroke-width: 0px;"/>
</svg>