<?xml version="1.0" encoding="utf-8"?>
<svg xmlns="http://www.w3.org/2000/svg">
    <defs>

        <symbol id="terrain-fortification" viewBox="0 0 48 48">
            <polygon points="23.64 11.43 7.95 19.16 13.74 33.14 35.37 32.02 38.55 18.16 23.64 11.43"/>
            <polygon points="30.95 35.38 31.95 38.75 44.27 38.19 44.58 27.46 41.04 27.8 40.47 34.06 30.95 35.38"/>
            <polygon points="4.4 31.72 7.39 31.72 8.69 37.62 19.93 37.24 20.21 41.35 6.01 41.73 4.4 31.72"/>
            <polygon points="1.59 25.64 5.05 25.55 3.46 17.41 9.73 14.6 9.73 12.17 0 16.57 1.59 25.64"/>
            <polygon points="37.61 13.85 37.71 11.61 47.91 15.35 48 21.81 42.95 21.34 42.85 16 37.61 13.85"/>
            <polygon points="14.88 10.3 15.16 11.98 22.92 8.61 28.82 11.23 31.06 9.45 23.11 6.27 14.88 10.3"/>
        </symbol>

        <symbol id="terrain-hills" viewBox="0 0 48 48">
            <path d="M48,31.22H10.1c4.65-6.48,9.74-11.92,18-12.41,9.24-.55,15.27,4.52,19.9,12.41Z" />
            <path d="M22.65,18.74c-1.01.29-1.87.52-2.71.79-3.78,1.23-6.66,3.7-9.3,6.58-.6.66-1.69,1.16-2.58,1.21-2.64.16-5.29.06-8.06.06,6.31-9.72,14.8-13.15,22.65-8.64Z" />
        </symbol>

        <symbol id="terrain-mountains" viewBox="0 0 48 48">
            <path d="M0,41.99C6.94,29.93,13.72,18.16,20.71,6.01c2.22,3.67,4.29,7.08,6.52,10.78,1.14-1.43,2.15-2.7,3.35-4.2,5.82,9.82,11.54,19.48,17.42,29.4H0Z" />
        </symbol>

        <symbol id="terrain-plains" viewBox="0 0 48 48">
            <path d="M23.47,20.23c6.11,1.48,12.03,2.92,18.2,4.42-2.44,4.31-4.77,8.43-7.23,12.76-6.92-2.82-13.78-5.62-21.02-8.56,3.45-2.96,6.71-5.76,10.04-8.61Z" />
            <path d="M42.05,23.13c-6.69-1.48-13.29-2.94-19.89-4.4-3.92,3.09-7.76,6.13-11.66,9.2-3.43-1.41-6.81-2.8-10.51-4.32,5.34-3.17,10.41-6.18,15.59-9.27,9.36,1.7,18.77,3.41,28.44,5.17-.71,1.3-1.31,2.39-1.98,3.61Z" />
            <path d="M18.14,12.81c.66-.12,1.34-.42,1.97-.33,8.69,1.29,17.37,2.63,26.24,3.99-.23.52-.4.89-.66,1.45-9.21-1.55-18.38-3.09-27.54-4.62,0-.16-.01-.33-.02-.49Z" />
            <path d="M21.25,10.84c.51-.08,1.04-.3,1.54-.24,8.18,1.03,16.35,2.09,24.52,3.15.19.02.36.15.69.3-.17.35-.33.66-.53,1.06-8.77-1.25-17.48-2.49-26.19-3.73,0-.18-.02-.36-.03-.54Z" />
        </symbol>

        <symbol id="terrain-urban" viewBox="0 0 48 48">
            <path d="M19.88,21.61c-.56-2.35-1.6-4.24-2.21-6.3-.15-.51-.38-1.01-.38-1.57,0-2.47,0-4.94,0-7.5h16.81v35.51h-16.75v-17.14h2.34c.05.4.09.79.14,1.28h3.36v-4.28h-3.31ZM23.2,28.67c-1.33-.97-2.1-.96-3.39,0v4.18h3.39v-4.18ZM26.26,32.24c.95,1.19,2.2.49,3.31.72v-4.93h-2.68c-.24.24-.41.41-.63.63,0,1.16,0,2.36,0,3.57ZM23.16,12.59c.03-.7.07-1.41.07-2.12,0-.79-.05-1.57-.08-2.26h-3.4c.03,1.52-.03,2.96.04,4.38h3.36ZM26.3,8.17v4.45c1.19-.1,2.31.11,3.3-.13v-4.32h-3.3ZM19.81,19.46h3.31v-4.3h-3.31v4.3ZM26.21,19.45c1.16.13,2.32.15,3.38,0v-4.49c-1.18.35-2.32-.18-3.38.3v4.19ZM29.6,25.94v-4.38h-2.78c-1.18,1.35-.34,2.91-.67,4.38h3.45Z" />
            <path d="M2.48,23.63c-.74-1.51-1.74-.89-2.48-1.24.95-2.07,1.15-4.42,2.48-6.27h12.89c.68,2,1.37,4.03,2.13,6.25-.57.06-.96.04-1.3.16-.29.1-.52.36-.83.59v18.62H2.48v-18.11ZM8.93,22.56v5.79h3.48c-.39-1.98.46-3.98-.59-5.79h-2.89ZM6.39,28.46c.92-1.77.25-3.56.49-5.17-1.04-1.31-2.28-.56-3.36-.8v5.97h2.87Z" />
            <path d="M48,15.98v25.78h-11.81v-25.53c.23-.08.52-.18.89-.31v-5.2h2v4.58l.69.69h8.23ZM42.5,24.95v-5.43c-1.35.05-2.63-.06-3.8.06v5.36h3.8ZM42.54,27.56h-3.93c0,.98,0,1.87,0,2.77.01.87.05,1.74.07,2.52h3.86v-5.28Z" />
        </symbol>

        <symbol id="terrain-water" viewBox="0 0 48 48">
            <path d="M10.09,21.77c-5.09,1.6-7.64.99-10.09-2.49,2.27.43,4.5.8,6.58-.2,1.94-.93,3.77-2.09,5.68-3.18.04.08.17.24.23.42.79,2.23,2.27,3.76,4.67,3.97,2.31.21,3.68-1.42,4.88-3.1.56-.78,1.02-1.63,1.57-2.54.89,1.09,1.63,2.22,2.59,3.09,1.02.92,2.17,1.81,3.42,2.35,2.34,1.01,4.43.1,5.63-2.18.32-.61.55-1.28.89-2.09.97.87,1.94,1.71,2.87,2.58,2.52,2.33,5.28,3.03,8.42,1.3.12-.07.26-.1.39-.12.05,0,.12.07.18.1-2.25,4.64-5.88,5.38-10.71,2.09-1.97,1.57-3.91,3.29-6.72,3.28-2.8,0-4.87-1.48-6.89-3.28-2.02,1.72-4.01,3.34-6.82,3.29-2.8-.06-4.85-1.56-6.76-3.3Z"/>
            <path d="M11.09,28.9c-3.71,1.68-6.41.68-8.47-3.08,4.37,2.33,5.74,2.03,7.51-1.69.89.8,1.72,1.64,2.65,2.36,3.94,3.1,7.06,2.66,9.98-1.34.24-.34.48-.68.82-1.16,1.92,2.1,3.77,4.21,6.8,4.46,3.29.27,5.03-1.93,6.55-4.04,1.34.99,2.52,2.42,3.95,2.75,1.37.31,2.99-.53,4.32-.82-1.78,3.37-3.57,3.98-7.83,2.5-4.47,4.95-6.46,5.92-13.71,2.37-7.05,3.26-9.02,2.92-12.57-2.31Z" />
        </symbol>

        <symbol id="terrain-forest" viewBox="0 0 48 48">
            <path d="M21.33,36.71c-3.59.33-6.89.64-10.71,1,2.99-3.89,5.73-7.46,8.73-11.36-2.31.35-4.22.65-6.57,1.01,2.9-4.41,5.56-8.47,8.43-12.83-1.18.27-2.01.45-3.31.74,2.74-3.7,5.25-7.09,7.95-10.73,2.28,3.63,4.44,7.07,6.79,10.8-1.27-.3-2.22-.52-3.53-.83,2.84,4.32,5.5,8.37,8.4,12.78-1.7-.34-3.04-.61-4.75-.96,1.93,3.86,3.73,7.45,5.69,11.38-3.24-.35-6.12-.65-9.27-.99v6.75h-7.82v-6.76Z" />
            <path d="M0,38.14c2.08-2.88,3.92-5.44,5.98-8.3-1.64.23-2.89.41-4.42.62,1.92-3.11,3.7-6,5.65-9.15-.79.09-1.32.14-2.19.24,2.26-3.25,4.37-6.28,6.76-9.72.6,2.5,3.89,3.8,1.31,6.81.91-.14,1.55-.23,2.74-.41-.33.91-.46,1.63-.83,2.19-1.66,2.58-3.38,5.12-5.07,7.68-.36.54-.69,1.1-1.19,1.9,2.08-.31,3.8-.57,6.08-.92-2.31,2.99-4.29,5.55-6.3,8.09-.15.19-.58.21-.88.24-2.37.23-4.74.44-7.65.71Z" />
            <path d="M38.37,11.82c1.98,3.35,3.77,6.38,5.71,9.66-.8-.07-1.36-.12-2.18-.19,1.87,3.04,3.66,5.95,5.62,9.14-1.16-.19-2.04-.33-3.35-.55,1.33,2.85,2.54,5.43,3.83,8.21-2.54-.22-4.88-.42-7.53-.65-1.2-2.36-2.6-5.14-4.19-8.28,1.91.35,3.46.63,5.36.98-2.67-4.08-5.15-7.88-7.88-12.05,1.26.2,2.08.34,3.21.52-2.81-3.05.55-4.36,1.4-6.78Z" />
            <path d="M7.96,42.25v-2.27c2.05-.2,4.08-.41,6.26-.62v2.89h-6.26Z" />
            <path d="M34.86,42.26v-2.89c2.04.2,4.01.4,6.11.61.05.79.1,1.45.15,2.28h-6.26Z" />
        </symbol>

        <symbol id="category-infantry" viewBox="0 0 50 40">
            <path d="M25.71,39.45c-2.88-.71-1.09-8.1-1.09-10.11-1.2-1.13-2.45-2.3-3.95-3.71-1.88,5.52-4.65,10.39-9.66,13.77-.38-.21-.72-.4-1.25-.69,1.96-5.1,4.73-9,5.3-14.58.54-5.23.99-10.33,3.02-15.23,2.87-.08,5.3.78,7.22,1.46,6.19-.33,12.37-.26,18.57-.26.46-.25,1.04-.55,1.91-1.01.08.95.14,1.6.22,2.53-2.9.1-5.66.2-8.47.3-.44.3-.89.61-1.27.87.21.47.4.89.65,1.47-1.68,1.51-3.33,2.99-5.06,4.54-1.95-.74-3.89-1.47-5.96-2.26-.49,1.17-.97,2.3-1.53,3.62,1.6,2.57,3.22,5.15,4.91,7.85-.93,3.39-1.42,8.68-3.56,11.46ZM34.05,13.36c-.03-.13-.07-.27-.1-.4-1.55.23-3.17-.21-4.86.69.72.59,1.28,1.05,1.83,1.5,1.14-.65,2.13-1.23,3.13-1.8Z"/>
            <path d="M26.74,4.74c-.08,4.9-7.63,4.71-7.59-.11.04-4.97,7.67-4.95,7.59.11Z"/>
        </symbol>
    
        <symbol id="category-tanks" viewBox="0 0 50 40">
            <path d="M4.02,25.25c-.93-.43-1.68-.78-2.78-1.3,0-.85-.02-1.84,0-2.83.07-2.38.68-3.32,3.03-3.44,5.81-.31,11.63-.56,17.45-.48,11.38.15,7.77-1.14,17.52,5.07.86.54,1.7,1.12,2.6,1.57.8.41,1.68.66,2.56.99.13,2.18-1.85.77-2.53,1.52,2.93,3.35,1.79,6.92-2.63,8.05-.97.24-2.02.26-3.03.26-7.87.03-15.73.03-23.6.02-1.02,0-2.04-.04-3.04-.2-3.87-.62-5.76-2.99-5.58-6.86.03-.73,0-1.46,0-2.38h0Z"/>
            <path d="M9.03,9.98v-5.16c.89-.29,1.79-.84,2.69-.86,4.89-.08,9.79-.07,14.68-.02,2.3.03,2.93.73,3.04,2.99.03.55,0,1.11,0,1.66,0,3.63-2.22,6.63-5.9,7.01-3.72.38-7.5.08-11.01.08-1.2-1.95-2.19-3.55-3.51-5.7Z"/>
            <path d="M30.62,10.24v-2.87h18.2c.06.87.11,1.73.18,2.87h-18.38Z"/>
        </symbol>
    
        <symbol id="category-ordnance" viewBox="0 0 50 40">
            <path d="M26.34,21.21c.74,1.94,1.45,3.8,2.19,5.73-.99.12-1.92.24-2.88.36,0-.24,0-.45,0-.66.12-3.35-1.76-6.06-4.93-7.14-.12-.04-.25-.12-.32-.22-1.63-2.38-3.25-4.77-4.88-7.15-.02-.03-.03-.07-.06-.15.6-.16,1.18-.32,1.76-.45.1-.02.27.08.36.17,1.54,1.55,3.08,3.09,4.61,4.66.25.25.46.33.81.23,1.73-.47,3.47-.92,5.25-1.38.14.49.26.95.4,1.44.98-.25,1.92-.49,2.86-.74,5.37-1.4,4.69-1.31,10.05-2.72.23-.06.57,0,.61-.39,0-.03.11-.06.18-.08,1.96-.51,3.93-1.02,5.94-1.54.23.88.46,1.76.7,2.67-.37.1-.72.21-1.07.3-1.58.41-3.17.83-4.75,1.24-.15.04-.32.18-.45-.07-.03-.05-.27,0-.41.04-3.16.82-.26.15-3.41.98-3.13.82-6.26,1.63-9.39,2.45-.08.02-.15.05-.27.1.12.47.24.94.37,1.47-1.07.28-2.15.57-3.27.87Z"/>
            <path d="M18.45,20.21c3.2-.17,6.02,2.44,6.2,5.73.18,3.32-2.4,6.13-5.81,6.32-3.13.17-6.06-2.42-6.22-5.53-.19-3.57,2.28-6.34,5.83-6.52ZM21.51,26.24c0-1.59-1.27-2.89-2.84-2.9-1.63,0-2.95,1.28-2.95,2.89,0,1.6,1.29,2.89,2.89,2.9,1.61,0,2.88-1.27,2.89-2.88Z"/>
            <path d="M12.81,30.23c-3.62.6-7.17,1.18-10.78,1.78,0-.85,0-1.66.01-2.46,0-.08.2-.19.32-.22,1.94-.54,3.89-1.06,5.83-1.59,1.02-.28,2.03-.55,3.05-.83.1-.03.2-.04.34-.07.12,1.23.52,2.34,1.22,3.4Z"/>
            <path d="M12.05,23.6c-.25-.81-.49-1.57-.72-2.32-.1-.34-.22-.67-.3-1.01-.02-.11.03-.31.11-.35,2.07-1.07,4.14-2.13,6.25-3.2.55.81,1.1,1.61,1.67,2.45-3.29,0-5.58,1.48-7.01,4.44Z"/>
        </symbol>
    
        <symbol id="category-air" viewBox="0 0 50 40">
            <path d="M24.21,32.75l-.23-10.49s-.89-1.23-1.32-1.48c-9.01-.78-19.65-3.11-19.65-7.46,0-2.82,11.35-3.62,11.35-3.62l.5-3.24,3.79.12.52,2.54h3.57V3.7s.54-2.34,2.56-2.41c2.41-.08,3.11,1.71,3.11,1.71l.23,6.37h3.73l.65-2.72,3.62-.11.5,3.05s10.99.97,10.87,3.24c-.23,4.5-10.43,8.74-18.89,7.65-.31.54-1.32,1.09-1.32,1.09l-.47,11.11s2.62-.16,3.42.16c.73.29,2.14,1.28,2.41,2.02s-.23,3.18-.23,3.18l-1.48.7s-3.03.47-3.81-.08c-.39-.27-.69-1.79-.69-1.79l-.31.16s-.26,1.9-.77,1.94c-.61.05-.94-2.17-.94-2.17h-.47s.34,1.92-.16,2.02c-1.22.24-4.16.4-5.2-.38-.69-.52-.66-3.44-.23-4.19.75-1.33,5.36-1.48,5.36-1.48Z"/>
        </symbol>
    
        <symbol id="category-naval" viewBox="0 0 50 40">
            <path d="M37.5,23.22c-1.16-1.24-2.24-2.39-3.6-3.84h10.1c-2.56,3.74-5.08,7.69-7.9,11.41-1.16,1.53-2.94,2.61-4.47,3.84-2.1,1.68-4.24,3.32-6.07,4.74-2.18-1.58-4.79-3.22-7.1-5.22-1.99-1.73-3.79-3.74-5.39-5.84-2.17-2.84-4.07-5.88-6.13-8.91h10.14c-1.28,1.37-2.4,2.56-3.48,3.71,1.36,4.44,4.85,7.13,9.77,7.53V13.31c-3.53-2.2-4.74-4.59-3.9-7.68.62-2.28,3-4.17,5.41-4.28,2.62-.13,5.07,1.44,5.96,3.81,1.14,3.04.24,5.24-3.32,8.1v17.55c4.7-.78,8.13-2.86,9.98-7.58ZM22.24,7.24c.18,1.95,1.29,3.08,3.09,3.07,1.71,0,2.83-1.13,2.86-2.91.03-1.79-1.02-2.88-2.77-2.95-1.87-.08-2.92,1.01-3.18,2.79Z"/>
        </symbol>
    
        <symbol id="category-secret" viewBox="0 0 50 40">
            <path d="M43.93,19.02h-12.01c-.1-2.67-1.23-4.65-3.46-6,1.94-3.52,3.85-7.01,5.77-10.49,4.9,1.34,10.47,10.86,9.7,16.49Z"/>
            <path d="M15.93,34.97c1.99-3.44,3.99-6.88,6.01-10.38,2.18,1.14,4.36,1.16,6.6.03,1.98,3.5,3.94,6.98,5.9,10.46-5.33,3.35-13.33,3.27-18.52-.11Z"/>
            <path d="M6.52,18.88c.25-6.96,3.26-12.31,9.15-16.15,2.07,3.48,4.11,6.91,6.19,10.4-2.02,1.35-3.13,3.22-3.23,5.74H6.52Z"/>
            <path d="M29.67,18.82c.02,2.42-1.97,4.42-4.39,4.43-2.42,0-4.41-1.99-4.4-4.41,0-2.41,1.94-4.36,4.36-4.4,2.4-.04,4.42,1.95,4.44,4.38Z"/>
        </symbol>
    </defs>
</svg>