<?xml version="1.0" encoding="utf-8"?>
<svg xmlns="http://www.w3.org/2000/svg">
  <defs>
    <symbol id="category-infantry" viewBox="0 0 50 40">
        <path fill="currentColor" d="M25.71,39.45c-2.88-.71-1.09-8.1-1.09-10.11-1.2-1.13-2.45-2.3-3.95-3.71-1.88,5.52-4.65,10.39-9.66,13.77-.38-.21-.72-.4-1.25-.69,1.96-5.1,4.73-9,5.3-14.58.54-5.23.99-10.33,3.02-15.23,2.87-.08,5.3.78,7.22,1.46,6.19-.33,12.37-.26,18.57-.26.46-.25,1.04-.55,1.91-1.01.08.95.14,1.6.22,2.53-2.9.1-5.66.2-8.47.3-.44.3-.89.61-1.27.87.21.47.4.89.65,1.47-1.68,1.51-3.33,2.99-5.06,4.54-1.95-.74-3.89-1.47-5.96-2.26-.49,1.17-.97,2.3-1.53,3.62,1.6,2.57,3.22,5.15,4.91,7.85-.93,3.39-1.42,8.68-3.56,11.46ZM34.05,13.36c-.03-.13-.07-.27-.1-.4-1.55.23-3.17-.21-4.86.69.72.59,1.28,1.05,1.83,1.5,1.14-.65,2.13-1.23,3.13-1.8Z"/>
        <path fill="currentColor" d="M26.74,4.74c-.08,4.9-7.63,4.71-7.59-.11.04-4.97,7.67-4.95,7.59.11Z"/>
    </symbol>

    <symbol id="category-tanks" viewBox="0 0 50 40">
        <path fill="currentColor" d="M4.02,25.25c-.93-.43-1.68-.78-2.78-1.3,0-.85-.02-1.84,0-2.83.07-2.38.68-3.32,3.03-3.44,5.81-.31,11.63-.56,17.45-.48,11.38.15,7.77-1.14,17.52,5.07.86.54,1.7,1.12,2.6,1.57.8.41,1.68.66,2.56.99.13,2.18-1.85.77-2.53,1.52,2.93,3.35,1.79,6.92-2.63,8.05-.97.24-2.02.26-3.03.26-7.87.03-15.73.03-23.6.02-1.02,0-2.04-.04-3.04-.2-3.87-.62-5.76-2.99-5.58-6.86.03-.73,0-1.46,0-2.38h0Z"/>
        <path fill="currentColor" d="M9.03,9.98v-5.16c.89-.29,1.79-.84,2.69-.86,4.89-.08,9.79-.07,14.68-.02,2.3.03,2.93.73,3.04,2.99.03.55,0,1.11,0,1.66,0,3.63-2.22,6.63-5.9,7.01-3.72.38-7.5.08-11.01.08-1.2-1.95-2.19-3.55-3.51-5.7Z"/>
        <path fill="currentColor" d="M30.62,10.24v-2.87h18.2c.06.87.11,1.73.18,2.87h-18.38Z"/>
    </symbol>

    <symbol id="category-ordnance" viewBox="0 0 50 40">
        <path fill="currentColor" d="M26.34,21.21c.74,1.94,1.45,3.8,2.19,5.73-.99.12-1.92.24-2.88.36,0-.24,0-.45,0-.66.12-3.35-1.76-6.06-4.93-7.14-.12-.04-.25-.12-.32-.22-1.63-2.38-3.25-4.77-4.88-7.15-.02-.03-.03-.07-.06-.15.6-.16,1.18-.32,1.76-.45.1-.02.27.08.36.17,1.54,1.55,3.08,3.09,4.61,4.66.25.25.46.33.81.23,1.73-.47,3.47-.92,5.25-1.38.14.49.26.95.4,1.44.98-.25,1.92-.49,2.86-.74,5.37-1.4,4.69-1.31,10.05-2.72.23-.06.57,0,.61-.39,0-.03.11-.06.18-.08,1.96-.51,3.93-1.02,5.94-1.54.23.88.46,1.76.7,2.67-.37.1-.72.21-1.07.3-1.58.41-3.17.83-4.75,1.24-.15.04-.32.18-.45-.07-.03-.05-.27,0-.41.04-3.16.82-.26.15-3.41.98-3.13.82-6.26,1.63-9.39,2.45-.08.02-.15.05-.27.1.12.47.24.94.37,1.47-1.07.28-2.15.57-3.27.87Z"/>
        <path fill="currentColor" d="M18.45,20.21c3.2-.17,6.02,2.44,6.2,5.73.18,3.32-2.4,6.13-5.81,6.32-3.13.17-6.06-2.42-6.22-5.53-.19-3.57,2.28-6.34,5.83-6.52ZM21.51,26.24c0-1.59-1.27-2.89-2.84-2.9-1.63,0-2.95,1.28-2.95,2.89,0,1.6,1.29,2.89,2.89,2.9,1.61,0,2.88-1.27,2.89-2.88Z"/>
        <path fill="currentColor" d="M12.81,30.23c-3.62.6-7.17,1.18-10.78,1.78,0-.85,0-1.66.01-2.46,0-.08.2-.19.32-.22,1.94-.54,3.89-1.06,5.83-1.59,1.02-.28,2.03-.55,3.05-.83.1-.03.2-.04.34-.07.12,1.23.52,2.34,1.22,3.4Z"/>
        <path fill="currentColor" d="M12.05,23.6c-.25-.81-.49-1.57-.72-2.32-.1-.34-.22-.67-.3-1.01-.02-.11.03-.31.11-.35,2.07-1.07,4.14-2.13,6.25-3.2.55.81,1.1,1.61,1.67,2.45-3.29,0-5.58,1.48-7.01,4.44Z"/>
    </symbol>

    <symbol id="category-air" viewBox="0 0 50 40">
        <path fill="currentColor" d="M24.21,32.75l-.23-10.49s-.89-1.23-1.32-1.48c-9.01-.78-19.65-3.11-19.65-7.46,0-2.82,11.35-3.62,11.35-3.62l.5-3.24,3.79.12.52,2.54h3.57V3.7s.54-2.34,2.56-2.41c2.41-.08,3.11,1.71,3.11,1.71l.23,6.37h3.73l.65-2.72,3.62-.11.5,3.05s10.99.97,10.87,3.24c-.23,4.5-10.43,8.74-18.89,7.65-.31.54-1.32,1.09-1.32,1.09l-.47,11.11s2.62-.16,3.42.16c.73.29,2.14,1.28,2.41,2.02s-.23,3.18-.23,3.18l-1.48.7s-3.03.47-3.81-.08c-.39-.27-.69-1.79-.69-1.79l-.31.16s-.26,1.9-.77,1.94c-.61.05-.94-2.17-.94-2.17h-.47s.34,1.92-.16,2.02c-1.22.24-4.16.4-5.2-.38-.69-.52-.66-3.44-.23-4.19.75-1.33,5.36-1.48,5.36-1.48Z"/>
    </symbol>

    <symbol id="category-naval" viewBox="0 0 50 40">
        <path fill="currentColor" d="M37.5,23.22c-1.16-1.24-2.24-2.39-3.6-3.84h10.1c-2.56,3.74-5.08,7.69-7.9,11.41-1.16,1.53-2.94,2.61-4.47,3.84-2.1,1.68-4.24,3.32-6.07,4.74-2.18-1.58-4.79-3.22-7.1-5.22-1.99-1.73-3.79-3.74-5.39-5.84-2.17-2.84-4.07-5.88-6.13-8.91h10.14c-1.28,1.37-2.4,2.56-3.48,3.71,1.36,4.44,4.85,7.13,9.77,7.53V13.31c-3.53-2.2-4.74-4.59-3.9-7.68.62-2.28,3-4.17,5.41-4.28,2.62-.13,5.07,1.44,5.96,3.81,1.14,3.04.24,5.24-3.32,8.1v17.55c4.7-.78,8.13-2.86,9.98-7.58ZM22.24,7.24c.18,1.95,1.29,3.08,3.09,3.07,1.71,0,2.83-1.13,2.86-2.91.03-1.79-1.02-2.88-2.77-2.95-1.87-.08-2.92,1.01-3.18,2.79Z"/>
    </symbol>

    <symbol id="category-secret" viewBox="0 0 50 40">
        <path fill="currentColor" d="M43.93,19.02h-12.01c-.1-2.67-1.23-4.65-3.46-6,1.94-3.52,3.85-7.01,5.77-10.49,4.9,1.34,10.47,10.86,9.7,16.49Z"/>
        <path fill="currentColor" d="M15.93,34.97c1.99-3.44,3.99-6.88,6.01-10.38,2.18,1.14,4.36,1.16,6.6.03,1.98,3.5,3.94,6.98,5.9,10.46-5.33,3.35-13.33,3.27-18.52-.11Z"/>
        <path fill="currentColor" d="M6.52,18.88c.25-6.96,3.26-12.31,9.15-16.15,2.07,3.48,4.11,6.91,6.19,10.4-2.02,1.35-3.13,3.22-3.23,5.74H6.52Z"/>
        <path fill="currentColor" d="M29.67,18.82c.02,2.42-1.97,4.42-4.39,4.43-2.42,0-4.41-1.99-4.4-4.41,0-2.41,1.94-4.36,4.36-4.4,2.4-.04,4.42,1.95,4.44,4.38Z"/>
    </symbol>
  </defs>
</svg>

